<svg width="229" height="254" viewBox="0 0 229 254" fill="none" xmlns="http://www.w3.org/2000/svg">
<path fill-rule="evenodd" clip-rule="evenodd" d="M84.1379 76.3716L84.1035 76.3963L69.6969 66.0205C66.6502 63.8187 62.9868 62.6335 59.2278 62.6335C55.4687 62.6335 51.8054 63.8187 48.7587 66.0205L34.352 76.3963L18.1165 64.7142C10.7265 59.4143 0.5 64.6769 0.5 73.7464V242.558C0.5 251.441 10.6145 256.965 18.1165 251.591L34.352 239.871L48.7587 250.247C55.0289 254.763 63.3893 254.763 69.6969 250.247L84.1035 239.871L98.5102 250.247C104.781 254.763 113.178 254.763 119.448 250.247L133.855 239.871L150.091 251.553C157.481 256.853 167.707 251.591 167.707 242.558V136.309L149.792 123.46V229.234L133.855 217.776L108.961 235.691L84.0662 217.776L59.1718 235.691L34.2773 217.776L18.415 229.234V87.0334L34.352 98.4915L59.2464 80.5765L84.1409 98.4915L99.5341 87.414L84.1379 76.3716ZM36.3301 173.063C36.3301 171.421 37.6737 170.077 39.3159 170.077H128.891C130.533 170.077 131.877 171.421 131.877 173.063V185.006C131.877 186.648 130.533 187.992 128.891 187.992H39.3159C37.6737 187.992 36.3301 186.648 36.3301 185.006V173.063ZM39.3159 128.275H128.891C130.533 128.275 131.877 129.619 131.877 131.261V143.204C131.877 144.847 130.533 146.19 128.891 146.19H39.3159C37.6737 146.19 36.3301 144.847 36.3301 143.204V131.261C36.3301 129.619 37.6737 128.275 39.3159 128.275Z" fill="white"/>
<path opacity="0.4" d="M214.969 114.717C201.947 132.747 176.813 136.805 158.778 123.782L88.829 73.2745C74.9519 63.2535 71.8155 43.8122 81.8372 29.9362C91.8824 16.0283 111.27 12.8978 125.182 22.9434L184.081 65.472C193.845 72.5226 196.051 86.2018 189 95.9646C181.933 105.749 168.291 107.953 158.503 100.885L108.62 64.8663C107.163 63.8142 106.835 61.7804 107.887 60.3237L111.697 55.0497C112.749 53.5934 114.782 53.2653 116.239 54.3169L166.122 90.3363C170.077 93.1925 175.592 92.3044 178.45 88.3475C181.3 84.4011 180.408 78.8713 176.461 76.0211L117.562 33.4924C109.484 27.6591 98.2236 29.4739 92.3881 37.5535C86.5665 45.6138 88.3887 56.9055 96.4491 62.726L166.397 113.233C178.598 122.044 195.606 119.302 204.419 107.1C213.239 94.8882 210.492 77.8656 198.273 69.0507C177.964 54.3987 157.657 39.7428 137.353 25.0832C135.896 24.0314 135.569 21.9982 136.621 20.5413L140.431 15.2672C141.483 13.8109 143.515 13.4819 144.972 14.5336C165.275 29.1923 185.58 43.8473 205.889 58.4985C223.943 71.5231 228.001 96.6744 214.969 114.717Z" fill="white"/>
</svg>
